# xmcd CD database file
#
# Track frame offsets:
#	150
#	22360
#	48710
#	75520
#	99380
#	121075
#	142542
#	167067
#	190357
#	214852
#	235230
#	251385
#
# Disc length: 3597 seconds
#
# Revision: 1
# Processed by: cddbd v1.5.2PL0 Copyright (c) Steve Scherf et al.
# Submitted via: CDex 1.70beta2
#
DISCID=9c0e0b0c
DTITLE=Ewan Svensson Trio - Figures
DYEAR=2001
DGENRE=Jazz
TTITLE0=Sketch
TTITLE1=Still Raining
TTITLE2=Time Remembered
TTITLE3=Waltz For J. A.
TTITLE4=Falling Grace
TTITLE5=Close
TTITLE6=To M
TTITLE7=Stony Cakes
TTITLE8=Changed
TTITLE9=Odd Or Even
TTITLE10=Treats Style
TTITLE11=Like Someone In Love
EXTD=YEAR: 2001
EXTT0=
EXTT1=
EXTT2=
EXTT3=
EXTT4=
EXTT5=
EXTT6=
EXTT7=
EXTT8=
EXTT9=
EXTT10=
EXTT11=
PLAYORDER=
